<svg xmlns="http://www.w3.org/2000/svg" xmlns:xlink="http://www.w3.org/1999/xlink" viewBox="0 0 109 156" fill="#fff" fill-rule="evenodd" stroke="#000" stroke-linecap="round" stroke-linejoin="round"><style><![CDATA[.B{stroke:none}.C{fill:#fdcc9b}.D{text-anchor:start}.E{font-weight:bold}]]></style><use xlink:href="#A" x=".5" y=".5"/><symbol id="A" overflow="visible"><g class="B"><path d="M53.976 154.405H0c0-11.329 28.431-27.989 53.976-27.989s53.976 16.66 53.976 27.989z" fill="#ffb466"/><path d="M53.976 126.416c-5.433 0-10.997.76-16.39 2.055.036.048 5.982 7.719 16.39 7.719 9.638 0 16.045-6.569 16.974-7.579-5.575-1.384-11.344-2.195-16.974-2.195z" fill="#ff8200"/><path d="M92.952 71.905q9.5 0 9.5 9-1.5 13-13 12 0-21 3.5-21z" class="C"/></g><path d="M13.952 71.905q-9.5 0-9.5 9 1.5 13 13 12 0-21-3.5-21z" class="B C"/><g class="B"><path d="M97.07 54.223c0-18.214-13.328-31.543-43.093-31.543S10.883 36.008 10.883 54.223s-3.11 66.196 43.094 66.196S97.07 72.438 97.07 54.223z" class="C"/><path d="M25.524 62.22c2.206 1.103 5.748-3.748 13.856.472 1.478.769 2.36-6.58-6.331-6.58-7.525 0-8.858 5.442-7.525 6.108zm56.904 0c-2.206 1.103-5.748-3.748-13.855.472-1.478.769-2.36-6.58 6.331-6.58 7.524 0 8.857 5.442 7.524 6.108z" fill="#262626"/><path d="M52.827 93.28c-4.61 0-6.237-4.871-6.237-3.205s1.333 4.832 7.386 4.832 7.386-3.165 7.386-4.832-3.285 4.705-7.285 2.58z" fill="#fcbc85"/><path d="M28.822 74.881c0-2.831 1.479-5.109 3.315-5.109s3.315 2.279 3.315 5.109-1.479 5.109-3.315 5.109-3.315-2.279-3.315-5.109zm43.5-.586c0-2.831 1.478-5.109 3.315-5.109s3.315 2.279 3.315 5.109-1.479 5.109-3.315 5.109-3.315-2.279-3.315-5.109z" fill="#000"/><g fill="#646464"><circle cx="31.39" cy="73.343" r="1.438"/><circle cx="74.64" cy="73.093" r="1.438"/></g><path d="M53.462 109.035c-2.425 0-3.282-1.109-3.282-.73s.701 1.1 3.886 1.1 3.886-.721 3.886-1.1-1.728 1.071-3.833.587z" fill="#fcbc85"/><path d="M42.452 118.405v9.25q12 10 22.75-.25v-8.5z" class="C"/></g><g class="B"><path d="M64.77 103.491a.84.84 0 0 0-.697-.019 25.76 25.76 0 0 1-9.552 1.933c-5.233 0-9.51-1.914-9.552-1.933-.21-.095-.502-.087-.697.019s-.239.283-.103.419c.142.143 3.532 3.496 10.353 3.496s10.212-3.352 10.353-3.496c.135-.137.092-.312-.103-.419" fill="#f7945e"/><path d="M107.682 53.34C94.881-3.656 48.107 6.165 48.107 6.165s-4.77-1.68 3.026-5.512c-14.198-3.71-23.037 9.582-23.037 9.582s-3.026.118-3.026-5.508c-3.608.474-.232 10.292-.232 10.292s-10.007.243-12.336-1.43c-1.161 3.828 8.052 3.057 10.707 4.07-46.778 3.35-6.981 69.214-6.749 63.945-6.981-30.894 9.775-42.149 9.775-42.149s14.194 14.73 25.599 13.417c-12.101-4.791-9.737-7.188-9.737-7.188s19.394 1.677 38.126-7.424c7.91.357 14.427 17.905 16.288 39.758 8.787-6.525 6.517-24.672 6.517-24.672s6.284 5.265 4.655-.007z" fill="#262626"/></g></symbol></svg>